/* XPM */
static char * pu_game_xpm[] = {
"21 32 45 1",
" 	c None",
".	c #000000",
"+	c #282828",
"@	c #444444",
"#	c #424242",
"$	c #373737",
"%	c #353535",
"&	c #343434",
"*	c #3E3E3E",
"=	c #313131",
"-	c #212121",
";	c #1F1F1F",
">	c #3D3D3D",
",	c #3A3A3A",
"'	c #2C2C2C",
")	c #202020",
"!	c #323232",
"~	c #383838",
"{	c #2B2B2B",
"]	c #393939",
"^	c #494949",
"/	c #414141",
"(	c #454545",
"_	c #1A1A1A",
":	c #464646",
"<	c #292929",
"[	c #262626",
"}	c #1B1B1B",
"|	c #1D1D1D",
"1	c #4B4B4B",
"2	c #161616",
"3	c #3C3C3C",
"4	c #1C1C1C",
"5	c #4D4D4D",
"6	c #434343",
"7	c #252525",
"8	c #232323",
"9	c #474747",
"0	c #363636",
"a	c #2A2A2A",
"b	c #303030",
"c	c #080808",
"d	c #272727",
"e	c #404040",
"f	c #3F3F3F",
"                     ",
"                     ",
"                     ",
"                     ",
"            .        ",
"            .        ",
"           ..        ",
"           ..        ",
"           ..    +   ",
"           ..   @#   ",
"      $%   .. #&* =- ",
";>   ,')!  ..~{  ]!  ",
" ^/(&& %_+:%++-<[    ",
"      :}_________|[  ",
"     1}___________}  ",
"     <_____________2 ",
"     3_____________4 ",
"     5<___________<  ",
"   6$ 5[__4)7))+8!   ",
"<>9,@0 a_05bc%( >!   ",
"[    3bde   . (>  >  ",
"            .  :*  & ",
"            .   f=   ",
"            ..       ",
"            ..       ",
"            ..       ",
"            ..       ",
"            ..       ",
"            .        ",
"            .        ",
"                     ",
"                     "};
