<?xml version="1.0" encoding="UTF-8" standalone="no"?>
<!-- Created with Inkscape (http://www.inkscape.org/) -->

<svg
   xmlns:dc="http://purl.org/dc/elements/1.1/"
   xmlns:cc="http://creativecommons.org/ns#"
   xmlns:rdf="http://www.w3.org/1999/02/22-rdf-syntax-ns#"
   xmlns:svg="http://www.w3.org/2000/svg"
   xmlns="http://www.w3.org/2000/svg"
   xmlns:xlink="http://www.w3.org/1999/xlink"
   xmlns:sodipodi="http://sodipodi.sourceforge.net/DTD/sodipodi-0.dtd"
   xmlns:inkscape="http://www.inkscape.org/namespaces/inkscape"
   width="210mm"
   height="297mm"
   id="svg2923"
   version="1.1"
   inkscape:version="0.47 r22583"
   sodipodi:docname="Neues Dokument 6">
  <defs
     id="defs2925">
    <linearGradient
       inkscape:collect="always"
       id="linearGradient3030">
      <stop
         style="stop-color:#000000;stop-opacity:1;"
         offset="0"
         id="stop3032" />
      <stop
         style="stop-color:#000000;stop-opacity:0;"
         offset="1"
         id="stop3034" />
    </linearGradient>
    <linearGradient
       inkscape:collect="always"
       id="linearGradient3020">
      <stop
         style="stop-color:#000000;stop-opacity:1;"
         offset="0"
         id="stop3022" />
      <stop
         style="stop-color:#000000;stop-opacity:0;"
         offset="1"
         id="stop3024" />
    </linearGradient>
    <inkscape:path-effect
       effect="skeletal"
       id="path-effect2996"
       is_visible="true"
       pattern="m 6.5753477,17.139103 c 0,-2.76 2.24,-5 5.0000003,-5 2.76,0 5,2.24 5,5 0,2.76 -2.24,5 -5,5 -2.7600003,0 -5.0000003,-2.24 -5.0000003,-5 z"
       copytype="single_stretched"
       prop_scale="1"
       scale_y_rel="false"
       spacing="0"
       normal_offset="0"
       tang_offset="0"
       prop_units="false"
       vertical_pattern="false"
       fuse_tolerance="0" />
    <inkscape:path-effect
       effect="skeletal"
       id="path-effect2992"
       is_visible="true"
       pattern="m -0.50579595,21.691267 c 0,-2.76 2.23999995,-5 4.99999995,-5 2.76,0 5,2.24 5,5 0,2.76 -2.24,5 -5,5 -2.76,0 -4.99999995,-2.24 -4.99999995,-5 z"
       copytype="single_stretched"
       prop_scale="1"
       scale_y_rel="false"
       spacing="0"
       normal_offset="0"
       tang_offset="0"
       prop_units="false"
       vertical_pattern="false"
       fuse_tolerance="0" />
    <inkscape:path-effect
       effect="skeletal"
       id="path-effect2988"
       is_visible="true"
       pattern="M 0,5 C 0,2.24 2.24,0 5,0 7.76,0 10,2.24 10,5 10,7.76 7.76,10 5,10 2.24,10 0,7.76 0,5 z"
       copytype="single_stretched"
       prop_scale="1"
       scale_y_rel="false"
       spacing="0"
       normal_offset="0"
       tang_offset="0"
       prop_units="false"
       vertical_pattern="false"
       fuse_tolerance="0" />
    <inkscape:perspective
       sodipodi:type="inkscape:persp3d"
       inkscape:vp_x="0 : 526.18109 : 1"
       inkscape:vp_y="0 : 1000 : 0"
       inkscape:vp_z="744.09448 : 526.18109 : 1"
       inkscape:persp3d-origin="372.04724 : 350.78739 : 1"
       id="perspective2931" />
    <inkscape:perspective
       id="perspective2980"
       inkscape:persp3d-origin="0.5 : 0.33333333 : 1"
       inkscape:vp_z="1 : 0.5 : 1"
       inkscape:vp_y="0 : 1000 : 0"
       inkscape:vp_x="0 : 0.5 : 1"
       sodipodi:type="inkscape:persp3d" />
    <linearGradient
       inkscape:collect="always"
       xlink:href="#linearGradient3020"
       id="linearGradient3026"
       x1="216.98647"
       y1="397.86221"
       x2="203.52434"
       y2="446.50061"
       gradientUnits="userSpaceOnUse"
       gradientTransform="translate(7.5869393,-0.50579595)" />
    <linearGradient
       inkscape:collect="always"
       xlink:href="#linearGradient3030"
       id="linearGradient3036"
       x1="472.41342"
       y1="395.83902"
       x2="474.66635"
       y2="438.51743"
       gradientUnits="userSpaceOnUse"
       gradientTransform="translate(-8.0927353,-3.5405717)" />
  </defs>
  <sodipodi:namedview
     id="base"
     pagecolor="#ffffff"
     bordercolor="#666666"
     borderopacity="1.0"
     inkscape:pageopacity="0.0"
     inkscape:pageshadow="2"
     inkscape:zoom="1.9770818"
     inkscape:cx="374.50995"
     inkscape:cy="659.37402"
     inkscape:document-units="px"
     inkscape:current-layer="layer1"
     showgrid="false"
     inkscape:window-width="1229"
     inkscape:window-height="1005"
     inkscape:window-x="273"
     inkscape:window-y="29"
     inkscape:window-maximized="0" />
  <metadata
     id="metadata2928">
    <rdf:RDF>
      <cc:Work
         rdf:about="">
        <dc:format>image/svg+xml</dc:format>
        <dc:type
           rdf:resource="http://purl.org/dc/dcmitype/StillImage" />
        <dc:title></dc:title>
      </cc:Work>
    </rdf:RDF>
  </metadata>
  <g
     inkscape:label="Ebene 1"
     inkscape:groupmode="layer"
     id="layer1">
    <path
       style="fill:url(#linearGradient3036);fill-opacity:1;stroke:none"
       d="m 420.33506,425.29235 -36.67021,-9.28725 -1.07037,-9.51058 c -0.5887,-5.23081 -1.23057,-10.53481 -1.42636,-11.78665 l -0.356,-2.27609 16.09445,-0.10275 c 16.9049,-0.10793 36.26767,-1.05635 77.16813,-3.77981 l 24.65636,-1.64181 26.79567,8.83174 c 14.73762,4.85746 26.80138,8.96138 26.80837,9.11982 0.007,0.15845 -10.51417,3.55171 -23.38036,7.54058 -12.86618,3.98887 -33.97378,10.63058 -46.90576,14.75934 -12.93198,4.12877 -23.85718,7.48748 -24.27821,7.46379 -0.42103,-0.0237 -17.2671,-4.22234 -37.43571,-9.33033 z"
       id="path3028" />
    <path
       style="fill:url(#linearGradient3026);fill-opacity:1;stroke:none"
       d="m 209.65996,439.62035 c -11.12141,-3.31121 -33.64963,-9.8873 -50.06271,-14.61354 -16.41308,-4.72623 -30.61551,-8.8398 -31.56097,-9.14127 -1.69498,-0.54045 -1.5819,-0.60436 8.09274,-4.57337 5.39646,-2.2139 17.32281,-7.15686 26.50301,-10.98437 l 16.69126,-6.9591 19.97894,1.1649 c 33.5194,1.9544 65.48618,3.22904 80.98111,3.22904 l 14.73231,0 -0.31601,1.13804 c -0.53624,1.93116 -1.78865,9.45201 -2.58273,15.50956 -0.41623,3.17514 -0.81436,5.81141 -0.88475,5.85839 -0.0704,0.047 -4.22491,1.74623 -9.23229,3.77613 -7.45113,3.02055 -24.07707,9.9131 -48.8204,20.2393 l -3.29876,1.37668 -20.22075,-6.02039 0,0 z"
       id="path3018" />
    <path
       style="fill:#666666;fill-rule:evenodd;stroke:#000000;opacity:1"
       d="m 315.60296,288.48216 c 0.009,-0.006 0.0222,-0.007 0.0389,-0.003 0.016,0.004 0.0355,0.0137 0.0584,0.028 0.0451,0.0282 0.10366,0.0756 0.17552,0.14212 0,0 0,0 0,0 0,0 0,0 0,0 0.13927,0.12897 0.32858,0.32979 0.56736,0.60165 0,0 0,0 0,0 0.44549,0.50721 1.06318,1.26171 1.8493,2.25819 0,0 0,0 0,0 1.31678,1.66911 3.10614,4.01713 5.35047,7.01913 0,0 0,0 0,0 2.07427,3.03637 4.5224,6.77547 7.31572,11.23417 -3e-5,4e-5 -3e-5,4e-5 -3e-5,4e-5 -2.85564,1.11756 -5.96311,2.37185 -9.32013,3.7707 0,0 0,0 0,0 -2.62684,1.09313 -5.34464,2.43221 -7.98118,4.13116 -2.63655,1.69895 -5.19315,3.75732 -7.40259,6.32599 0,0 0,0 0,0 -1.97042,2.23738 -3.63959,4.8755 -5.03452,7.83201 -1.39494,2.95651 -2.51509,6.23217 -3.43717,9.67524 0,0 0,0 0,0 -1.1811,3.44483 -2.43733,7.00375 -3.77059,10.67539 -1e-5,3e-5 -1e-5,3e-5 -1e-5,3e-5 -0.0446,0.006 -0.0893,0.0128 -0.1339,0.0192 -0.12624,0.018 -0.2525,0.0361 -0.3788,0.0541 -0.49304,0.0704 -0.98659,0.1409 -1.48066,0.21151 0,0 0,0 0,0 -0.10322,-0.13561 -0.20647,-0.27144 -0.30985,-0.40745 0,0 0,0 0,0 -1e-5,-10e-6 -1e-5,-2e-5 -2e-5,-3e-5 0,0 0,0 0,0 -0.38878,-0.51147 -0.7795,-1.02558 -1.17217,-1.54233 -1.36851,-1.80096 -2.76059,-3.6339 -4.17599,-5.49847 0,0 0,0 0,0 -4.02945,-5.30819 -8.24785,-10.87277 -12.64926,-16.68579 0,0 0,0 0,0 -4.05648,-5.35747 -8.2684,-10.92598 -12.6311,-16.69929 0,0 0,0 0,0 -1.37239,-1.81614 -2.7597,-3.65254 -4.16179,-5.50902 0,0 0,0 0,0 -0.388,-0.51375 -0.77714,-1.02904 -1.1674,-1.54586 -1e-5,-10e-6 -1e-5,-10e-6 -2e-5,-2e-5 -0.10272,-0.13604 -0.20553,-0.27218 -0.30841,-0.40843 2e-5,1.3e-4 0,3e-5 -2e-5,-7e-5 -0.0965,-0.43446 -0.19299,-0.86917 -0.28955,-1.30413 0,0 0,0 0,0 -0.004,-0.009 -0.007,-0.0173 -0.0106,-0.0259 -0.001,-0.003 -0.002,-0.006 -0.004,-0.009 1.26657,-2.05182 2.55944,-4.12273 3.8787,-6.21251 -10e-6,1e-5 -10e-6,1e-5 -10e-6,1e-5 -2.60733,2.26925 -5.24289,4.56599 -7.90553,6.8893 0,0 0,0 0,0 1.78943,-0.50232 3.59208,-1.0166 5.40789,-1.54291 0,0 0,0 0,0 2e-5,0 3e-5,0 5e-5,-1e-5 0,0 0,0 0,0 11.18993,16.70049 23.27417,34.73144 36.19105,53.99862 0,0 0,0 0,0 -0.22587,8.73055 -0.48108,17.68398 -0.76565,26.85492 -5.99947,-0.4398 -12.0973,-0.8807 -18.29216,-1.3226 0,0 0,0 0,0 -2.45964,-7.11118 -4.96967,-14.34518 -7.52895,-21.69877 0,0 0,0 0,0 -8.68959,-8.12839 -17.58781,-16.4631 -26.6854,-24.99534 0.84801,-2.34216 1.70684,-4.69417 2.5764,-7.05593 -2.75073,2.61258 -5.51001,5.23719 -8.27762,7.87354 2.21589,-0.0566 4.44073,-0.12033 6.67444,-0.19101 7.1488,8.34573 14.42997,16.84643 21.83827,25.49611 3.10982,7.42512 6.24922,14.93656 9.41726,22.53163 0,0 0,0 0,0 8.37254,2.82291 16.8435,5.68599 25.4096,8.58789 0,0 0,0 0,0 0.16352,14.42037 0.33878,29.11516 0.52476,44.06931 0,0 0,0 0,0 -11.5045,14.1028 -23.25439,28.47555 -35.23178,43.09967 0,0 0,0 0,0 9.72294,11.34194 19.58667,22.83846 29.58207,34.48071 -1e-5,0 -1e-5,0 -1e-5,0 -3.38496,17.36304 -6.82928,34.99474 -10.32788,52.87324 -4.76132,-0.013 -9.54057,-0.0304 -14.33731,-0.0519 6.38155,2.50234 12.79184,5.01485 19.23042,7.53749 -2.15201,-2.26972 -4.31138,-4.54259 -6.47788,-6.8186 5.48425,-18.40047 11.04653,-37.03423 16.67932,-55.88156 0,0 0,0 0,0 -9.68573,-9.86205 -19.44364,-19.80691 -29.26951,-29.82783 0,0 0,0 0,0 7.18855,-4.77281 14.4077,-9.56687 21.65557,-14.38067 10e-6,10e-6 10e-6,10e-6 10e-6,10e-6 6.37557,6.49428 12.78075,13.01625 19.21324,19.56457 0,0 0,0 0,0 4.62818,4.65052 9.47083,8.95667 14.80526,12.29108 0,0 0,0 0,0 2e-5,10e-6 4e-5,2e-5 5e-5,3e-5 0,0 0,0 0,0 2.48937,1.5634 5.01268,2.91299 7.59165,3.82984 2e-5,0 4e-5,1e-5 6e-5,2e-5 2.32649,0.81179 4.63604,1.34621 6.79809,1.30159 2e-5,0 4e-5,0 5e-5,0 4.56993,0.11998 9.39898,-2.23819 14.11061,-5.13995 5.12193,-3.28936 9.78485,-7.54408 14.24465,-12.17793 1.95525,-2.04171 3.84785,-4.15614 5.68267,-6.33228 1.68491,-1.99834 3.3177,-4.04468 4.90277,-6.12985 1.03116,-1.35754 2.03531,-2.7232 3.00435,-4.10146 0.26717,-0.38001 0.52861,-0.7563 0.7828,-1.12986 3e-5,-10e-6 3e-5,-10e-6 4e-5,-10e-6 1.2114,-0.33348 2.42061,-0.66429 3.62742,-0.99258 2e-5,0 2e-5,0 2e-5,0 0.0227,-0.023 0.0453,-0.0459 0.0679,-0.0689 0.006,-0.006 0.0116,-0.0118 0.0174,-0.0177 8.54553,5.86402 17.05661,11.7155 25.53517,17.54454 -11.14206,9.29535 -22.21871,18.53379 -33.22508,27.70903 7.08681,19.19686 14.10219,38.21069 21.03751,57.02112 -2.76176,1.65129 -5.51795,3.30084 -8.2684,4.94869 5.48447,-1.9264 10.95205,-3.84637 16.40272,-5.75984 -3e-5,0 -5e-5,-10e-6 -8e-5,-10e-6 -3.76718,-0.52727 -7.52532,-1.05571 -11.27416,-1.58549 -4.37928,-17.39391 -8.71054,-34.60301 -12.98927,-51.60813 10.50844,-11.2467 20.90862,-22.37963 31.19234,-33.39123 -11.05119,-16.44196 -21.9268,-32.64867 -32.61079,-48.6014 -1.255,-15.34645 -2.5022,-30.47924 -3.74206,-45.38374 4.11492,-1.48627 8.21262,-2.9626 12.2928,-4.42878 6.80832,-7.58245 13.55191,-15.08708 20.22825,-22.51075 8.86193,-8.94035 17.59583,-17.75623 26.19515,-26.44164 3.0394,1.0164 6.06766,2.02243 9.08465,3.01792 -4.08158,-3.82122 -8.13935,-7.62506 -12.1728,-11.4112 -0.11111,3.26255 -0.22994,6.51009 -0.35662,9.74244 -8.42324,7.58497 -16.71796,15.04901 -24.87861,22.38703 -5.77364,8.13105 -11.45724,16.13782 -17.0475,24.01584 -3e-5,0 -5e-5,1e-5 -8e-5,1e-5 -4.40068,0.73671 -8.76351,1.47343 -13.08803,2.21015 -0.53309,-9.08698 -1.03755,-18.02096 -1.51279,-26.79768 13.78084,-19.46374 26.92951,-38.02963 39.3944,-55.62504 4.24293,0.14763 8.43948,0.27712 12.589,0.38853 -5.46359,-3.2652 -10.84952,-6.48664 -16.15472,-9.66246 1.38071,3.31361 2.73187,6.59643 4.05342,9.84797 -13.91345,18.47251 -26.73726,35.65977 -38.40565,51.45566 -1.31875,-4.31295 -2.58049,-8.53844 -3.78585,-12.67536 -0.58886,-3.35246 -1.33758,-6.57268 -2.41319,-9.57481 -1.05984,-2.87239 -2.24684,-5.51733 -4.04086,-7.38567 -4.00806,-4.35972 -9.23562,-7.40149 -14.35111,-10.21407 -3.29611,-2.09424 -6.50227,-4.10885 -9.61753,-6.04456 5.85931,-8.01512 11.20931,-15.40779 16.04196,-22.15157 -9.05001,8.82366 -16.78973,16.22523 -23.12474,22.17069 -12.19338,-12.8037 -18.76315,-19.82642 -19.36551,-20.72957 0.0267,-0.026 0.0267,-0.026 0.0267,-0.026 0,0 4e-5,-4e-5 0.0267,-0.026 0.88507,0.62375 7.66513,7.30511 19.35879,19.02233 6.37975,-5.79052 14.18981,-12.74171 23.3444,-20.72127 -4.21604,6.63255 -8.77494,13.8878 -13.64662,21.73597 2.91672,0.92974 5.90368,1.85713 8.95928,2.78024 5.3416,2.72805 11.03153,5.93889 15.8596,10.86029 2.4871,2.62838 4.10125,5.8302 5.25322,8.99981 1.2652,3.39227 2.1622,6.9365 2.84696,10.5264 -0.26587,3.79547 -0.56951,7.65952 -0.91186,11.59065 10.04573,-15.65407 20.80816,-32.62833 32.20439,-50.8135 0.0442,-3.56092 0.10449,-7.16275 0.18098,-10.80499 6.50828,3.99664 13.172,8.09106 19.98796,12.2813 -3.79682,1.48097 -7.63012,2.99442 -11.49926,4.54017 -11.43773,16.7326 -23.42287,34.26292 -35.90968,52.52377 -0.89933,6.91425 -1.83412,13.90251 -2.80361,20.96227 1.97737,-1.51765 3.95276,-3.04828 5.92612,-4.59175 1e-5,-10e-6 2e-5,-2e-5 3e-5,-3e-5 5.1164,-7.68464 10.30749,-15.48476 15.57064,-23.39622 7.93109,-7.05986 15.99018,-14.22817 24.17215,-21.50051 2.01485,-3.19226 4.04741,-6.39889 6.09742,-9.6197 5.35115,5.59846 10.76001,11.26125 16.22502,16.98662 -2.98454,0.99549 -5.98014,2.00152 -8.98669,3.01792 -7.52626,8.28888 -15.14606,16.68742 -22.8556,25.19073 -7.36968,7.88294 -14.8315,15.85862 -22.38144,23.92304 -3.68749,0.28415 -7.38847,0.56512 -11.10274,0.84304 2.21453,12.67344 4.46833,25.49077 6.75834,38.44566 10.38142,17.13462 20.93073,34.57995 31.63445,52.30832 -10.04525,11.46775 -20.20476,23.0693 -30.47128,34.7951 3.81058,14.50062 7.65665,29.14009 11.53611,43.91178 2.69165,2.47579 5.3876,4.95926 8.08785,7.45013 10e-6,2e-5 3e-5,3e-5 5e-5,5e-5 -7.40759,2.37262 -14.84867,4.75553 -22.32156,7.14826 0.68653,-2.64838 1.37253,-5.30155 2.05808,-7.95941 -6.69045,-19.08625 -13.44883,-38.38072 -20.26839,-57.86094 11.65141,-8.35248 23.38312,-16.75825 35.18782,-25.21417 -6.0989,-3.60343 -12.21791,-7.21848 -18.35731,-10.84578 -0.008,0.0156 -0.0119,0.0236 -0.0154,0.0317 -0.0136,0.0314 -0.0273,0.0627 -0.041,0.0941 0,0 0,0 0,0 1.06551,-0.11743 2.13244,-0.23802 3.20102,-0.36162 10e-6,0 10e-6,-10e-6 2e-5,-10e-6 -0.28992,0.42609 -0.58033,0.84439 -0.86968,1.2559 -1.04981,1.49309 -2.12629,2.95807 -3.22127,4.39932 -1.67996,2.21279 -3.41874,4.39187 -5.22077,6.5281 -1.96237,2.32629 -3.99544,4.59664 -6.10399,6.79998 -4.76048,4.99766 -10.02442,9.74639 -16.04213,13.65734 -5.41727,3.64523 -12.03951,6.53319 -19.4703,6.73258 -4e-5,0 -7e-5,0 -1e-4,0 -3.65804,-0.006 -7.11817,-0.74026 -10.25272,-1.89939 -3e-5,-1e-5 -6e-5,-2e-5 -8e-5,-3e-5 0,0 0,0 0,0 -3.45581,-1.26116 -6.62894,-2.93202 -9.54334,-4.79383 0,0 0,0 0,0 -2e-5,-10e-6 -4e-5,-3e-5 -6e-5,-4e-5 -6.30541,-4.04357 -11.81483,-8.92373 -16.81221,-14.01578 -4.37638,-6.30089 -8.73782,-12.57791 -13.08461,-18.83002 -4.84257,2.52682 -9.67152,5.04768 -14.4871,7.5631 10.54873,9.05318 21.01713,18.04359 31.39853,26.96779 0,0 0,0 0,0 -5.25323,19.47146 -10.45184,38.71601 -15.59092,57.70968 -0.0108,3.32876 -0.0188,6.64945 -0.0238,9.96192 -8.27123,-3.53434 -16.4911,-7.04601 -24.65712,-10.53385 3.83626,-1.74809 7.66259,-3.48659 11.47889,-5.21513 0,0 0,0 0,0 2.60369,-15.2482 5.18505,-30.32732 7.74346,-45.22826 0,0 0,0 0,0 -9.62911,-12.34327 -19.13314,-24.51844 -28.50438,-36.51383 11.70072,-15.63125 23.19669,-30.96155 34.47194,-45.96618 0,0 0,0 0,0 0.62304,-12.5802 1.22869,-24.99999 1.81558,-37.25172 0,0 0,0 0,0 -8.40395,-2.31965 -16.71565,-4.62045 -24.93198,-6.90181 0,0 0,0 0,0 -3.79756,-8.07754 -7.54336,-16.05779 -11.2357,-23.93753 -6.58492,-7.96728 -13.07541,-15.82042 -19.46763,-23.55465 -2.08532,-1.79829 -4.16322,-3.58307 -6.23366,-5.35425 4.60754,-3.87113 9.16321,-7.7009 13.66614,-11.4886 0.86956,2.391 1.72839,4.77202 2.5764,7.14297 8.94752,8.1925 17.69647,16.21369 26.2378,24.05542 0,0 0,0 0,0 1.8118,7.07096 3.6051,14.03797 5.37915,20.89795 0,0 0,0 0,0 3.81596,0.86387 7.61506,1.71387 11.39646,2.54984 -0.81861,-7.30577 -1.59727,-14.50229 -2.33567,-21.58478 0,0 0,0 0,0 -11.56693,-18.20189 -22.49071,-35.38151 -32.70707,-51.44038 0,0 0,0 0,0 -1e-5,-10e-6 -2e-5,-10e-6 -4e-5,-2e-5 0,0 0,0 0,0 -1.61537,-0.77435 -3.22134,-1.53505 -4.8178,-2.28214 0,0 0,0 0,0 3.68716,-3.0212 7.2972,-5.98126 10.82952,-8.87963 0,0 0,0 0,0 0.0157,2.25544 0.0177,4.48736 0.006,6.6956 0.003,0.003 0.007,0.007 0.0104,0.01 0.01,0.009 0.0198,0.0189 0.0297,0.0283 0,0 0,0 0,0 -0.0441,-0.36428 -0.0882,-0.72833 -0.13227,-1.09214 -1e-5,-8e-5 -2e-5,-1.6e-4 -3e-5,-2.5e-4 0.10061,0.13819 0.2011,0.27605 0.30151,0.41381 0,0 1e-5,10e-6 1e-5,2e-5 0.38148,0.52334 0.76181,1.04516 1.141,1.56545 0,0 0,0 0,0 1.37024,1.88011 2.72554,3.74026 4.06578,5.58026 0,0 0,0 0,0 4.26047,5.84916 8.36864,11.49464 12.31991,16.93017 0,0 0,0 0,0 4.28725,5.89772 8.38978,11.54827 12.30171,16.94364 0,0 0,0 0,0 1.37413,1.8952 2.72473,3.75891 4.05157,5.5908 0.38071,0.52561 0.75946,1.04861 1.13624,1.56898 10e-6,1e-5 10e-6,2e-5 2e-5,3e-5 0.1002,0.13837 0.20025,0.27657 0.30017,0.41457 -0.44173,0.14132 -0.88286,0.28248 -1.32349,0.42352 -0.11288,0.0361 -0.22572,0.0722 -0.33853,0.10837 -0.0399,0.0127 -0.0798,0.0255 -0.11976,0.0382 0,0 0,0 0,0 0.0577,-3.39943 0.15214,-6.70705 0.28081,-9.92071 0,0 0,0 0,0 1.03714,-3.63746 2.3436,-7.1364 3.96806,-10.32643 1.62446,-3.19003 3.56638,-6.0719 5.82909,-8.54772 0,0 0,0 0,0 2.59414,-2.77968 5.47099,-4.94849 8.37773,-6.69086 2.90675,-1.74236 5.8447,-3.05783 8.65384,-4.0874 0,0 0,0 0,0 3.17412,-0.53382 6.14654,-1.07867 8.90925,-1.62367 0,0 0,0 0,0 -2.91508,-3.71438 -5.37857,-7.00749 -7.38892,-9.81928 0,0 0,0 0,0 -2.04592,-3.14058 -3.63446,-5.62886 -4.74827,-7.43974 0,0 0,0 0,0 -0.66496,-1.0811 -1.16071,-1.92077 -1.48356,-2.51364 0,0 0,0 0,0 -0.17305,-0.31777 -0.29642,-0.56464 -0.36957,-0.7398 0,0 0,0 0,0 0,0 0,0 0,0 -0.0377,-0.0904 -0.0621,-0.16164 -0.073,-0.21371 -0.006,-0.0264 -0.008,-0.0479 -0.006,-0.0645 0.001,-0.0173 0.007,-0.0292 0.0159,-0.0356 z"
       id="path2986"
       inkscape:path-effect="#path-effect2988"
       inkscape:original-d="m 315.60294,288.48213 c 0,0 14.70471,21.05347 14.70471,21.05347 0,0 -15.82243,2.73753 -25.32241,13.3149 -9.49018,10.56645 -11.16012,28.48878 -11.16012,28.48878 0,0 -36.30861,-48.93747 -36.30861,-48.93747 l 1.93622,-6.45405 -9.36753,7.88447 5.11289,0.36962 34.44906,52.7195 0.78501,24.21985 -14.84431,-1.93622 -6.45405,-21.29836 -26.4616,-24.52538 0,-7.09945 -10.97188,9.68107 6.45405,2.58162 20.65295,24.52538 10.32648,23.23458 25.17079,7.74485 -0.64541,40.66051 -34.85186,44.53293 29.04322,35.49726 -9.03567,49.05076 -12.9081,2.58162 21.94377,9.03567 -3.22703,-8.39026 16.13512,-56.79562 -30.33402,-28.39781 18.07133,-10.97189 c 0,0 26.68657,38.41112 49.05077,38.26312 22.3642,-0.148 47.11455,-37.61771 47.11455,-37.61771 l 21.94376,14.1989 -34.20645,26.4616 20.65295,57.44103 -5.16324,6.45405 19.36214,-6.45405 -9.68107,-4.51784 -12.26269,-47.75995 30.83181,-34.09317 -32.12262,-50.45486 -5.2502,-41.9147 11.69777,-2.63591 21.30484,-23.21689 24.52538,-25.81619 9.03567,0 -14.19891,-14.19891 -3.22702,9.68107 -24.52538,21.94377 -16.30907,23.70603 -9.50713,3.40097 0.64541,-23.87998 37.65204,-54.0744 12.04413,-2.07582 -18.07134,-10.97188 1.93622,10.32648 -35.30502,51.1346 c 0,0 -0.92004,-22.1898 -8.71411,-30.37637 -7.79406,-8.18657 -24.39378,-14.94959 -24.39378,-14.94959 l 14.84431,-21.94376 -23.23457,21.44598 -19.36215,-19.87595 z"
       sodipodi:nodetypes="cczcccccccccccccccccccccccccczcccccccccccccccccccccccccczcccc" />
    <path
       style="fill:none;fill-rule:evenodd;stroke:none"
       d="m 288.30369,397.35642 c -0.0711,1.03478 -12.28063,1.15799 -32.96401,0.49018 -20.68339,-0.66781 -49.83875,-2.12699 -84.02857,-4.21242 -16.69297,7.13968 -34.71919,14.57121 -53.62025,22.30186 4.21623,1.20323 8.47043,2.41707 12.7582,3.64144 33.55026,9.58025 64.89916,18.62556 91.88174,26.88103 12.56783,-5.29836 24.17514,-10.15049 34.55678,-14.45108 10.38164,-4.30058 19.53761,-8.04961 27.16072,-11.11428 0,0 0,0 0,-10e-6 0.83043,-7.38626 1.6623,-13.27979 2.40747,-17.32889 0.74517,-4.04909 1.40324,-6.25321 1.84792,-6.20783 0.44468,0.0454 0.64315,2.34534 0.52628,6.74428 -0.11687,4.39894 -0.5495,10.89741 -1.32885,19.287 0,0 0,1e-5 0,1e-5 -7.47351,3.69862 -16.79213,8.2262 -27.67974,13.45424 -10.88761,5.22804 -23.34424,11.15655 -37.05174,17.62954 -27.87529,-9.42385 -60.62673,-21.03647 -95.53921,-33.52004 -4.46186,-1.59541 -8.88604,-3.1784 -13.26675,-4.74575 19.58964,-11.15829 38.32328,-21.76633 55.63167,-31.3125 35.01991,2.66717 64.78978,5.25435 85.72919,7.44476 20.93941,2.19041 33.05021,3.98368 32.97915,5.01846 z"
       id="path2990"
       inkscape:path-effect="#path-effect2992"
       inkscape:original-d="m 288.30369,397.35642 -117.85046,-8.09273 -54.62596,26.80718 106.72295,34.39413 63.22449,-28.32457 2.52898,-24.78401 z" />
    <path
       style="fill:none;fill-rule:evenodd;stroke:none;fill-opacity:1"
       d="m 388.45129,395.33323 c -0.0834,-1.036 12.17688,-2.98828 33.35904,-5.45784 21.18216,-2.46956 51.28783,-5.45614 86.69077,-8.59213 17.81902,8.29196 37.085,17.52537 57.22673,27.24164 -4.51147,1.77895 -9.06923,3.57649 -13.66704,5.38867 -30.83734,12.1542 -59.98772,23.56722 -85.58711,33.19703 -16.57652,-5.16327 -31.66997,-9.9041 -44.82714,-14.06772 -13.15717,-4.16362 -24.37804,-7.75001 -33.26469,-10.64115 -0.13333,-8.28066 -0.22305,-14.79055 -0.23786,-19.35169 -0.0148,-4.56113 0.0454,-7.174 0.22659,-7.71206 0.0805,-0.005 0.0807,-0.005 0.0807,-0.005 0,0 2.4e-4,-1e-5 0.0807,-0.005 0.24284,0.51002 0.6062,3.05064 1.10689,7.25313 0.50069,4.2025 1.13884,10.06637 1.9166,17.27432 9.02471,2.20944 20.03886,4.95488 32.61516,8.11933 12.57629,3.16445 26.71476,6.74794 42.04338,10.67024 24.83298,-8.1391 52.926,-16.89474 82.75413,-26.11489 4.44734,-1.37472 8.85866,-2.73727 13.22897,-4.08765 -19.3893,-6.30982 -37.89415,-12.38892 -55.05997,-18.28 -34.67371,2.50577 -64.25196,4.32425 -85.23455,5.24931 -20.9826,0.92506 -33.36791,0.95696 -33.45132,-0.079 z"
       id="path2994"
       inkscape:path-effect="#path-effect2996"
       inkscape:original-d="m 388.45129,395.33323 119.36784,-9.61012 56.14335,22.76082 -97.61862,34.39412 -76.37519,-21.74922 -1.51738,-25.7956 z" />
    <path
       style="fill:#1a1a1a;stroke:none"
       d="m 289.37571,531.77857 c -0.0209,-0.41728 0.74635,-4.7258 1.70509,-9.57449 l 1.74315,-8.81578 -13.70929,-15.96822 c -7.54011,-8.78251 -14.15516,-16.46554 -14.70011,-17.07338 l -0.99081,-1.10518 17.54284,-21.40274 17.54285,-21.40275 -0.28849,-11.3357 c -0.15867,-6.23463 -0.2885,-16.36822 -0.2885,-22.51906 l 0,-11.18336 -12.84137,-4.25828 -12.84137,-4.25826 -4.65483,-11.21658 c -4.50004,-10.84358 -4.78118,-11.36286 -8.45413,-15.61531 -2.08961,-2.41931 -3.69915,-4.49887 -3.57676,-4.62127 0.12239,-0.12239 2.43054,1.88369 5.12923,4.45795 l 4.90669,4.68048 3.56602,10.36881 c 1.96131,5.70285 3.76741,10.57892 4.01355,10.83571 0.35547,0.37084 13.63206,1.64996 18.48149,1.78058 1.04601,0.0282 1.06823,-0.18858 1.42635,-13.91551 0.31405,-12.03715 0.2588,-14.10437 -0.40399,-15.11591 -0.73639,-1.12387 -0.7068,-1.184 0.72328,-1.47002 0.88447,-0.17689 1.49107,-0.61846 1.49107,-1.08542 0,-0.43297 0.35449,-0.92325 0.78776,-1.08951 0.43327,-0.16626 0.67007,-0.60899 0.52622,-0.98385 -0.41493,-1.08129 5.09716,-16.69323 7.10147,-20.11355 4.66146,-7.95472 9.99536,-12.0067 22.4381,-17.04543 2.92097,-1.18286 5.51909,-2.3334 5.77361,-2.55677 0.26672,-0.23408 -0.33805,-1.6122 -1.42768,-3.2533 -1.03974,-1.56596 -1.78876,-2.94887 -1.66449,-3.07314 0.12428,-0.12427 1.61795,1.29317 3.31929,3.14988 l 3.09334,3.37584 7.84497,-7.45619 c 4.31473,-4.1009 7.84496,-7.31695 7.84496,-7.14678 0,0.17017 -2.16797,3.30985 -4.8177,6.97705 l -4.8177,6.66766 3.93256,2.51109 c 2.1629,1.3811 6.19766,3.85708 8.96611,5.50219 5.94764,3.53427 10.87837,7.42068 12.6297,9.95474 1.68438,2.4372 3.57155,7.57697 5.08866,13.85913 0.68541,2.83823 1.90723,7.32269 2.71515,9.96547 1.40616,4.59973 1.4322,4.8591 0.60921,6.06955 -0.80357,1.1819 -0.81003,2.16474 -0.0989,15.04743 0.86619,15.69212 0.27149,14.2943 5.64773,13.27471 1.47393,-0.27952 2.77128,-0.41683 2.88299,-0.30511 0.11171,0.11171 -1.63219,0.81432 -3.87534,1.56135 -2.24315,0.74704 -4.08217,1.62407 -4.08672,1.94896 -0.005,0.32489 0.80667,10.71927 1.8027,23.09863 l 1.81095,22.50792 16.21052,24.20671 c 15.72436,23.48077 16.18223,24.23383 15.26792,25.11097 -0.91066,0.87362 -1.37459,0.60624 -13.69501,-7.89288 l -12.75243,-8.79715 -2.24204,0.88324 c -1.85386,0.73031 -2.90059,1.75895 -6.04569,5.94119 -11.85887,15.76948 -25.51108,27.11428 -34.99946,29.08406 -3.90441,0.81055 -7.85159,0.0431 -13.1469,-2.5562 -6.56351,-3.2218 -11.93016,-7.72094 -25.50457,-21.38178 l -12.82229,-12.90393 -11.31078,7.55144 c -6.22093,4.15329 -11.31078,7.72234 -11.31078,7.93122 0,0.20888 3.65728,4.01885 8.12729,8.46659 4.47,4.44774 11.04197,11.15952 14.60438,14.91505 l 6.4771,6.82825 -2.88432,9.61012 c -1.58638,5.28557 -3.0192,9.95154 -3.18404,10.36882 -0.26642,0.67439 -0.30395,0.67439 -0.33779,0 z"
       id="path3038" />
  </g>
</svg>
