<?xml version="1.0" encoding="UTF-8" standalone="no"?>
<!-- Created with Inkscape (http://www.inkscape.org/) -->

<svg
   xmlns:dc="http://purl.org/dc/elements/1.1/"
   xmlns:cc="http://creativecommons.org/ns#"
   xmlns:rdf="http://www.w3.org/1999/02/22-rdf-syntax-ns#"
   xmlns:svg="http://www.w3.org/2000/svg"
   xmlns="http://www.w3.org/2000/svg"
   xmlns:sodipodi="http://sodipodi.sourceforge.net/DTD/sodipodi-0.dtd"
   xmlns:inkscape="http://www.inkscape.org/namespaces/inkscape"
   width="210mm"
   height="297mm"
   id="svg2855"
   version="1.1"
   inkscape:version="0.47 r22583"
   sodipodi:docname="Neues Dokument 3">
  <defs
     id="defs2857">
    <inkscape:perspective
       sodipodi:type="inkscape:persp3d"
       inkscape:vp_x="0 : 526.18109 : 1"
       inkscape:vp_y="0 : 1000 : 0"
       inkscape:vp_z="744.09448 : 526.18109 : 1"
       inkscape:persp3d-origin="372.04724 : 350.78739 : 1"
       id="perspective2863" />
  </defs>
  <sodipodi:namedview
     id="base"
     pagecolor="#ffffff"
     bordercolor="#666666"
     borderopacity="1.0"
     inkscape:pageopacity="0.0"
     inkscape:pageshadow="2"
     inkscape:zoom="2.3398876"
     inkscape:cx="338.57143"
     inkscape:cy="521.42857"
     inkscape:document-units="px"
     inkscape:current-layer="layer1"
     showgrid="false"
     inkscape:window-width="1037"
     inkscape:window-height="843"
     inkscape:window-x="499"
     inkscape:window-y="118"
     inkscape:window-maximized="0" />
  <metadata
     id="metadata2860">
    <rdf:RDF>
      <cc:Work
         rdf:about="">
        <dc:format>image/svg+xml</dc:format>
        <dc:type
           rdf:resource="http://purl.org/dc/dcmitype/StillImage" />
        <dc:title></dc:title>
      </cc:Work>
    </rdf:RDF>
  </metadata>
  <g
     inkscape:label="Ebene 1"
     inkscape:groupmode="layer"
     id="layer1">
    <g
       id="g2875"
       transform="matrix(0,1,-1,0,875.43062,196.76553)">
      <path
         d="m 361.12844,537.59387 c 0,8.61511 -9.9497,15.59904 -22.22329,15.59904 -12.27358,0 -22.22329,-6.98393 -22.22329,-15.59904 0,-8.61511 9.94971,-15.59904 22.22329,-15.59904 12.27359,0 22.22329,6.98393 22.22329,15.59904 z"
         sodipodi:ry="15.59904"
         sodipodi:rx="22.223289"
         sodipodi:cy="537.59387"
         sodipodi:cx="338.90515"
         id="path2865"
         style="fill:#000080;fill-opacity:1;stroke:none"
         sodipodi:type="arc" />
      <path
         transform="matrix(1.7567567,0,0,2.0277778,-70.435348,-572.41761)"
         d="m 241.03722,545.92761 c 0,4.24855 -3.5398,7.69268 -7.90636,7.69268 -4.36656,0 -7.90636,-3.44413 -7.90636,-7.69268 0,-4.24855 3.5398,-7.69267 7.90636,-7.69267 4.36656,0 7.90636,3.44412 7.90636,7.69267 z"
         sodipodi:ry="7.692677"
         sodipodi:rx="7.9063625"
         sodipodi:cy="545.92761"
         sodipodi:cx="233.13086"
         id="path2867"
         style="fill:#241c1c;fill-opacity:1;stroke:none"
         sodipodi:type="arc" />
      <path
         transform="translate(-9.8295325,-59.831933)"
         d="m 334.20409,597.85315 c 0,2.47832 -3.5398,4.48739 -7.90636,4.48739 -4.36656,0 -7.90636,-2.00907 -7.90636,-4.48739 0,-2.47832 3.5398,-4.4874 7.90636,-4.4874 4.36656,0 7.90636,2.00908 7.90636,4.4874 z"
         sodipodi:ry="4.4873948"
         sodipodi:rx="7.9063625"
         sodipodi:cy="597.85315"
         sodipodi:cx="326.29773"
         id="path2869"
         style="fill:#000080;fill-opacity:1;stroke:none"
         sodipodi:type="arc" />
      <path
         sodipodi:type="arc"
         style="fill:#000080;fill-opacity:1;stroke:none"
         id="path2873"
         sodipodi:cx="326.29773"
         sodipodi:cy="597.85315"
         sodipodi:rx="7.9063625"
         sodipodi:ry="4.4873948"
         d="m 334.20409,597.85315 c 0,2.47832 -3.5398,4.48739 -7.90636,4.48739 -4.36656,0 -7.90636,-2.00907 -7.90636,-4.48739 0,-2.47832 3.5398,-4.4874 7.90636,-4.4874 4.36656,0 7.90636,2.00908 7.90636,4.4874 z"
         transform="translate(35.899159,-60.259304)" />
    </g>
  </g>
</svg>
