<?xml version="1.0" encoding="UTF-8" standalone="no"?>
<!-- Created with Inkscape (http://www.inkscape.org/) -->

<svg
   xmlns:dc="http://purl.org/dc/elements/1.1/"
   xmlns:cc="http://creativecommons.org/ns#"
   xmlns:rdf="http://www.w3.org/1999/02/22-rdf-syntax-ns#"
   xmlns:svg="http://www.w3.org/2000/svg"
   xmlns="http://www.w3.org/2000/svg"
   xmlns:sodipodi="http://sodipodi.sourceforge.net/DTD/sodipodi-0.dtd"
   xmlns:inkscape="http://www.inkscape.org/namespaces/inkscape"
   width="210mm"
   height="297mm"
   id="svg2"
   version="1.1"
   inkscape:version="0.47 r22583"
   sodipodi:docname="Neues Dokument 1">
  <defs
     id="defs4">
    <inkscape:perspective
       sodipodi:type="inkscape:persp3d"
       inkscape:vp_x="0 : 526.18109 : 1"
       inkscape:vp_y="0 : 1000 : 0"
       inkscape:vp_z="744.09448 : 526.18109 : 1"
       inkscape:persp3d-origin="372.04724 : 350.78739 : 1"
       id="perspective10" />
  </defs>
  <sodipodi:namedview
     id="base"
     pagecolor="#ffffff"
     bordercolor="#666666"
     borderopacity="1.0"
     inkscape:pageopacity="0.0"
     inkscape:pageshadow="2"
     inkscape:zoom="0.35"
     inkscape:cx="350"
     inkscape:cy="520"
     inkscape:document-units="px"
     inkscape:current-layer="layer1"
     showgrid="false"
     inkscape:window-width="1160"
     inkscape:window-height="877"
     inkscape:window-x="253"
     inkscape:window-y="9"
     inkscape:window-maximized="0" />
  <metadata
     id="metadata7">
    <rdf:RDF>
      <cc:Work
         rdf:about="">
        <dc:format>image/svg+xml</dc:format>
        <dc:type
           rdf:resource="http://purl.org/dc/dcmitype/StillImage" />
        <dc:title></dc:title>
      </cc:Work>
    </rdf:RDF>
  </metadata>
  <g
     inkscape:label="Ebene 1"
     inkscape:groupmode="layer"
     id="layer1">
    <path
       sodipodi:type="arc"
       style="fill:#008000;fill-opacity:1;stroke:#000000;stroke-width:1.39999998;stroke-linecap:butt;stroke-miterlimit:4;stroke-opacity:1;stroke-dasharray:none"
       id="path2816"
       sodipodi:cx="288.57144"
       sodipodi:cy="376.64789"
       sodipodi:rx="37.142857"
       sodipodi:ry="30"
       d="m 325.7143,376.64789 a 37.142857,30 0 1 1 -74.28571,0 37.142857,30 0 1 1 74.28571,0 z" />
    <path
       sodipodi:type="arc"
       style="fill:#008000;fill-opacity:1;stroke:#000000;stroke-width:1.39999998;stroke-linecap:butt;stroke-miterlimit:4;stroke-opacity:1;stroke-dasharray:none"
       id="path2818"
       sodipodi:cx="337.14285"
       sodipodi:cy="415.21933"
       sodipodi:rx="40"
       sodipodi:ry="34.285713"
       d="m 377.14285,415.21933 a 40,34.285713 0 1 1 -80,0 40,34.285713 0 1 1 80,0 z" />
    <path
       sodipodi:type="arc"
       style="fill:#008000;fill-opacity:1;stroke:#000000;stroke-width:1.39999998;stroke-linecap:butt;stroke-miterlimit:4;stroke-opacity:1;stroke-dasharray:none"
       id="path2820"
       sodipodi:cx="277.14285"
       sodipodi:cy="426.64789"
       sodipodi:rx="45.714287"
       sodipodi:ry="42.857143"
       d="m 322.85714,426.64789 a 45.714287,42.857143 0 1 1 -91.42857,0 45.714287,42.857143 0 1 1 91.42857,0 z" />
    <path
       sodipodi:type="arc"
       style="fill:#008000;fill-opacity:1;stroke:#000000;stroke-width:1.39999998;stroke-linecap:butt;stroke-miterlimit:4;stroke-opacity:1;stroke-dasharray:none"
       id="path2822"
       sodipodi:cx="242.85715"
       sodipodi:cy="390.93362"
       sodipodi:rx="34.285713"
       sodipodi:ry="30"
       d="m 277.14286,390.93362 a 34.285713,30 0 1 1 -68.57143,0 34.285713,30 0 1 1 68.57143,0 z" />
    <path
       sodipodi:type="arc"
       style="fill:#008000;fill-opacity:1;stroke:#000000;stroke-width:1.39999998;stroke-linecap:butt;stroke-miterlimit:4;stroke-opacity:1;stroke-dasharray:none"
       id="path2824"
       sodipodi:cx="230"
       sodipodi:cy="462.36218"
       sodipodi:rx="32.857143"
       sodipodi:ry="24.285715"
       d="m 262.85714,462.36218 a 32.857143,24.285715 0 1 1 -65.71428,0 32.857143,24.285715 0 1 1 65.71428,0 z" />
    <path
       sodipodi:type="arc"
       style="fill:#008000;fill-opacity:1;stroke:#000000;stroke-width:1.39999998;stroke-linecap:butt;stroke-miterlimit:4;stroke-opacity:1;stroke-dasharray:none"
       id="path2826"
       sodipodi:cx="331.42856"
       sodipodi:cy="465.21933"
       sodipodi:rx="40"
       sodipodi:ry="35.714287"
       d="m 371.42856,465.21933 a 40,35.714287 0 1 1 -80,0 40,35.714287 0 1 1 80,0 z" />
    <path
       sodipodi:type="arc"
       style="fill:#008000;fill-opacity:1;stroke:#000000;stroke-width:1.39999998;stroke-linecap:butt;stroke-miterlimit:4;stroke-opacity:1;stroke-dasharray:none"
       id="path2828"
       sodipodi:cx="278.57144"
       sodipodi:cy="472.36218"
       sodipodi:rx="44.285713"
       sodipodi:ry="34.285713"
       d="m 322.85715,472.36218 a 44.285713,34.285713 0 1 1 -88.57142,0 44.285713,34.285713 0 1 1 88.57142,0 z" />
    <path
       sodipodi:type="arc"
       style="fill:#008000;fill-opacity:1;stroke:#000000;stroke-width:1.39999998;stroke-linecap:butt;stroke-miterlimit:4;stroke-opacity:1;stroke-dasharray:none"
       id="path2830"
       sodipodi:cx="347.14285"
       sodipodi:cy="638.07648"
       sodipodi:rx="47.142857"
       sodipodi:ry="51.42857"
       d="m 394.28571,638.07648 a 47.142857,51.42857 0 1 1 -94.28571,0 47.142857,51.42857 0 1 1 94.28571,0 z"
       transform="translate(-37.142857,-200)" />
    <path
       sodipodi:type="arc"
       style="fill:#008000;fill-opacity:1;stroke:#000000;stroke-width:1.39999998;stroke-linecap:butt;stroke-miterlimit:4;stroke-opacity:1;stroke-dasharray:none"
       id="path2832"
       sodipodi:cx="297.14285"
       sodipodi:cy="608.07648"
       sodipodi:rx="45.714287"
       sodipodi:ry="44.285713"
       d="m 342.85714,608.07648 a 45.714287,44.285713 0 1 1 -91.42857,0 45.714287,44.285713 0 1 1 91.42857,0 z"
       transform="translate(-34.285719,-180)" />
  </g>
</svg>
