<?xml version="1.0" encoding="UTF-8" standalone="no"?>
<!-- Created with Inkscape (http://www.inkscape.org/) -->

<svg
   xmlns:dc="http://purl.org/dc/elements/1.1/"
   xmlns:cc="http://creativecommons.org/ns#"
   xmlns:rdf="http://www.w3.org/1999/02/22-rdf-syntax-ns#"
   xmlns:svg="http://www.w3.org/2000/svg"
   xmlns="http://www.w3.org/2000/svg"
   xmlns:xlink="http://www.w3.org/1999/xlink"
   xmlns:sodipodi="http://sodipodi.sourceforge.net/DTD/sodipodi-0.dtd"
   xmlns:inkscape="http://www.inkscape.org/namespaces/inkscape"
   width="210mm"
   height="297mm"
   id="svg2923"
   version="1.1"
   inkscape:version="0.48.0 r9654"
   sodipodi:docname="logo.svg">
  <defs
     id="defs2925">
    <linearGradient
       id="linearGradient3773">
      <stop
         style="stop-color:#ff9100;stop-opacity:1;"
         offset="0"
         id="stop3775" />
      <stop
         style="stop-color:#ffd1a5;stop-opacity:0.2375;"
         offset="1"
         id="stop3777" />
    </linearGradient>
    <linearGradient
       inkscape:collect="always"
       id="linearGradient3030">
      <stop
         style="stop-color:#000000;stop-opacity:1;"
         offset="0"
         id="stop3032" />
      <stop
         style="stop-color:#000000;stop-opacity:0;"
         offset="1"
         id="stop3034" />
    </linearGradient>
    <linearGradient
       inkscape:collect="always"
       id="linearGradient3020">
      <stop
         style="stop-color:#000000;stop-opacity:1;"
         offset="0"
         id="stop3022" />
      <stop
         style="stop-color:#000000;stop-opacity:0;"
         offset="1"
         id="stop3024" />
    </linearGradient>
    <inkscape:path-effect
       effect="skeletal"
       id="path-effect2996"
       is_visible="true"
       pattern="m 6.5753477,17.139103 c 0,-2.76 2.24,-5 5.0000003,-5 2.76,0 5,2.24 5,5 0,2.76 -2.24,5 -5,5 -2.7600003,0 -5.0000003,-2.24 -5.0000003,-5 z"
       copytype="single_stretched"
       prop_scale="1"
       scale_y_rel="false"
       spacing="0"
       normal_offset="0"
       tang_offset="0"
       prop_units="false"
       vertical_pattern="false"
       fuse_tolerance="0" />
    <inkscape:path-effect
       effect="skeletal"
       id="path-effect2992"
       is_visible="true"
       pattern="m -0.50579595,21.691267 c 0,-2.76 2.23999995,-5 4.99999995,-5 2.76,0 5,2.24 5,5 0,2.76 -2.24,5 -5,5 -2.76,0 -4.99999995,-2.24 -4.99999995,-5 z"
       copytype="single_stretched"
       prop_scale="1"
       scale_y_rel="false"
       spacing="0"
       normal_offset="0"
       tang_offset="0"
       prop_units="false"
       vertical_pattern="false"
       fuse_tolerance="0" />
    <inkscape:path-effect
       effect="skeletal"
       id="path-effect2988"
       is_visible="true"
       pattern="M 0,5 C 0,2.24 2.24,0 5,0 7.76,0 10,2.24 10,5 10,7.76 7.76,10 5,10 2.24,10 0,7.76 0,5 z"
       copytype="single_stretched"
       prop_scale="1"
       scale_y_rel="false"
       spacing="0"
       normal_offset="0"
       tang_offset="0"
       prop_units="false"
       vertical_pattern="false"
       fuse_tolerance="0" />
    <inkscape:perspective
       sodipodi:type="inkscape:persp3d"
       inkscape:vp_x="0 : 526.18109 : 1"
       inkscape:vp_y="0 : 1000 : 0"
       inkscape:vp_z="744.09448 : 526.18109 : 1"
       inkscape:persp3d-origin="372.04724 : 350.78739 : 1"
       id="perspective2931" />
    <inkscape:perspective
       id="perspective2980"
       inkscape:persp3d-origin="0.5 : 0.33333333 : 1"
       inkscape:vp_z="1 : 0.5 : 1"
       inkscape:vp_y="0 : 1000 : 0"
       inkscape:vp_x="0 : 0.5 : 1"
       sodipodi:type="inkscape:persp3d" />
    <linearGradient
       inkscape:collect="always"
       xlink:href="#linearGradient3020"
       id="linearGradient3026"
       x1="216.98647"
       y1="397.86221"
       x2="203.52434"
       y2="446.50061"
       gradientUnits="userSpaceOnUse"
       gradientTransform="matrix(0,1,-1,0,772.15612,99.545757)" />
    <linearGradient
       inkscape:collect="always"
       xlink:href="#linearGradient3030"
       id="linearGradient3036"
       x1="472.41342"
       y1="395.83902"
       x2="474.66635"
       y2="438.51743"
       gradientUnits="userSpaceOnUse"
       gradientTransform="matrix(0,1,-1,0,775.1909,83.866082)" />
    <radialGradient
       inkscape:collect="always"
       xlink:href="#linearGradient3773"
       id="radialGradient3779"
       cx="354.13226"
       cy="430.7532"
       fx="354.13226"
       fy="430.7532"
       r="218.37193"
       gradientUnits="userSpaceOnUse" />
    <linearGradient
       inkscape:collect="always"
       xlink:href="#linearGradient3030"
       id="linearGradient3807"
       gradientUnits="userSpaceOnUse"
       gradientTransform="matrix(0,1,-1,0,775.1909,83.866082)"
       x1="472.41342"
       y1="395.83902"
       x2="474.66635"
       y2="438.51743" />
    <linearGradient
       inkscape:collect="always"
       xlink:href="#linearGradient3020"
       id="linearGradient3809"
       gradientUnits="userSpaceOnUse"
       gradientTransform="matrix(0,1,-1,0,772.15612,99.545757)"
       x1="216.98647"
       y1="397.86221"
       x2="203.52434"
       y2="446.50061" />
  </defs>
  <sodipodi:namedview
     id="base"
     pagecolor="#ffffff"
     bordercolor="#666666"
     borderopacity="1.0"
     inkscape:pageopacity="0.0"
     inkscape:pageshadow="2"
     inkscape:zoom="2.0196019"
     inkscape:cx="61.130059"
     inkscape:cy="644.80664"
     inkscape:document-units="px"
     inkscape:current-layer="layer1"
     showgrid="false"
     inkscape:window-width="1920"
     inkscape:window-height="1123"
     inkscape:window-x="0"
     inkscape:window-y="24"
     inkscape:window-maximized="1" />
  <metadata
     id="metadata2928">
    <rdf:RDF>
      <cc:Work
         rdf:about="">
        <dc:format>image/svg+xml</dc:format>
        <dc:type
           rdf:resource="http://purl.org/dc/dcmitype/StillImage" />
        <dc:title></dc:title>
      </cc:Work>
    </rdf:RDF>
  </metadata>
  <g
     inkscape:label="Ebene 1"
     inkscape:groupmode="layer"
     id="layer1">
    <path
       sodipodi:type="arc"
       style="fill:url(#radialGradient3779);fill-opacity:1;stroke:none"
       id="path3001"
       sodipodi:cx="354.13226"
       sodipodi:cy="430.7532"
       sodipodi:rx="218.37193"
       sodipodi:ry="218.37193"
       d="m 572.5042,430.7532 a 218.37193,218.37193 0 1 1 -436.74387,0 218.37193,218.37193 0 1 1 436.74387,0 z"
       transform="translate(-400.25734,-27.641919)"
       inkscape:export-filename="/home/mu/Branches/lp-projectubernahme/trunk/pu-game.png"
       inkscape:export-xdpi="9.8913813"
       inkscape:export-ydpi="9.8913813" />
    <path
       style="fill:none;stroke:none"
       d="m 374.29391,380.26251 c -1.03478,-0.0711 -1.15799,-12.28063 -0.49018,-32.96401 0.66781,-20.68339 2.12699,-49.83875 4.21242,-84.02857 -7.13968,-16.69297 -14.57121,-34.71919 -22.30186,-53.62025 -1.20323,4.21623 -2.41707,8.47043 -3.64144,12.7582 -9.58025,33.55026 -18.62556,64.89916 -26.88103,91.88174 5.29836,12.56783 10.15049,24.17514 14.45108,34.55678 4.30058,10.38164 8.04961,19.53761 11.11428,27.16072 0,0 0,0 10e-6,0 7.38626,0.83043 13.27979,1.6623 17.32889,2.40747 4.04909,0.74517 6.25321,1.40324 6.20783,1.84792 -0.0454,0.44468 -2.34534,0.64315 -6.74428,0.52628 -4.39894,-0.11687 -10.89741,-0.5495 -19.287,-1.32885 0,0 -10e-6,0 -10e-6,0 -3.69862,-7.47351 -8.2262,-16.79213 -13.45424,-27.67974 -5.22804,-10.88761 -11.15655,-23.34424 -17.62954,-37.05174 9.42385,-27.87529 21.03647,-60.62673 33.52004,-95.53921 1.59541,-4.46186 3.1784,-8.88604 4.74575,-13.26675 11.15829,19.58964 21.76633,38.32328 31.3125,55.63167 -2.66717,35.01991 -5.25435,64.78978 -7.44476,85.72919 -2.19041,20.93941 -3.98368,33.05021 -5.01846,32.97915 z"
       id="path2990"
       inkscape:path-effect="#path-effect2992"
       inkscape:original-d="m 374.29391,380.26251 8.09273,-117.85046 -26.80718,-54.62596 -34.39413,106.72295 28.32457,63.22449 24.78401,2.52898 z" />
    <g
       id="g3800"
       transform="translate(-403.97061,-27.314906)">
      <path
         id="path3028"
         d="m 346.35798,512.29388 9.28725,-36.67021 9.51058,-1.07037 c 5.23081,-0.5887 10.53481,-1.23057 11.78665,-1.42636 l 2.27609,-0.356 0.10275,16.09445 c 0.10793,16.9049 1.05635,36.26767 3.77981,77.16813 l 1.64181,24.65636 -8.83174,26.79567 c -4.85746,14.73762 -8.96138,26.80138 -9.11982,26.80837 -0.15845,0.007 -3.55171,-10.51417 -7.54058,-23.38036 -3.98887,-12.86618 -10.63058,-33.97378 -14.75934,-46.90576 -4.12877,-12.93198 -7.48748,-23.85718 -7.46379,-24.27821 0.0237,-0.42103 4.22234,-17.2671 9.33033,-37.43571 z"
         style="fill:url(#linearGradient3807);fill-opacity:1;stroke:none"
         inkscape:connector-curvature="0" />
      <path
         id="path3018"
         d="m 332.02998,301.61878 c 3.31121,-11.12141 9.8873,-33.64963 14.61354,-50.06271 4.72623,-16.41308 8.8398,-30.61551 9.14127,-31.56097 0.54045,-1.69498 0.60436,-1.5819 4.57337,8.09274 2.2139,5.39646 7.15686,17.32281 10.98437,26.50301 l 6.9591,16.69126 -1.1649,19.97894 c -1.9544,33.5194 -3.22904,65.48618 -3.22904,80.98111 l 0,14.73231 -1.13804,-0.31601 c -1.93116,-0.53624 -9.45201,-1.78865 -15.50956,-2.58273 -3.17514,-0.41623 -5.81141,-0.81436 -5.85839,-0.88475 -0.047,-0.0704 -1.74623,-4.22491 -3.77613,-9.23229 -3.02055,-7.45113 -9.9131,-24.07707 -20.2393,-48.8204 l -1.37668,-3.29876 6.02039,-20.22075 0,0 z"
         style="fill:url(#linearGradient3809);fill-opacity:1;stroke:none"
         inkscape:connector-curvature="0" />
      <path
         sodipodi:nodetypes="cczcccccccccccccccccccccccccczcccccccccccccccccccccccccczcccc"
         inkscape:original-d="m 483.1682,407.56176 c 0,0 -21.05347,14.70471 -21.05347,14.70471 0,0 -2.73753,-15.82243 -13.3149,-25.32241 -10.56645,-9.49018 -28.48878,-11.16012 -28.48878,-11.16012 0,0 48.93747,-36.30861 48.93747,-36.30861 l 6.45405,1.93622 -7.88447,-9.36753 -0.36962,5.11289 -52.7195,34.44906 -24.21985,0.78501 1.93622,-14.84431 21.29836,-6.45405 24.52538,-26.4616 7.09945,0 -9.68107,-10.97188 -2.58162,6.45405 -24.52538,20.65295 -23.23458,10.32648 -7.74485,25.17079 -40.66051,-0.64541 -44.53293,-34.85186 -35.49726,29.04322 -49.05076,-9.03567 -2.58162,-12.9081 -9.03567,21.94377 8.39026,-3.22703 56.79562,16.13512 28.39781,-30.33402 10.97189,18.07133 c 0,0 -38.41112,26.68657 -38.26312,49.05077 0.148,22.3642 37.61771,47.11455 37.61771,47.11455 l -14.1989,21.94376 -26.4616,-34.20645 -57.44103,20.65295 -6.45405,-5.16324 6.45405,19.36214 4.51784,-9.68107 47.75995,-12.26269 34.09317,30.83181 50.45486,-32.12262 41.9147,-5.2502 2.63591,11.69777 23.21689,21.30484 25.81619,24.52538 0,9.03567 14.19891,-14.19891 -9.68107,-3.22702 -21.94377,-24.52538 -23.70603,-16.30907 -3.40097,-9.50713 23.87998,0.64541 54.0744,37.65204 2.07582,12.04413 10.97188,-18.07134 -10.32648,1.93622 -51.1346,-35.30502 c 0,0 22.1898,-0.92004 30.37637,-8.71411 8.18657,-7.79406 14.94959,-24.39378 14.94959,-24.39378 l 21.94376,14.84431 -21.44598,-23.23457 19.87595,-19.36215 z"
         inkscape:path-effect="#path-effect2988"
         id="path2986"
         d="m 483.16817,407.56178 c 0.23277,0.33327 -6.85727,5.74115 -21.29605,15.2943 0,0 -10e-6,0 -10e-6,0 -0.0826,-0.0476 -0.16539,-0.0956 -0.2483,-0.14345 -0.23435,-0.13528 -0.46996,-0.27149 -0.70672,-0.40867 -0.0354,-0.16351 -0.0733,-0.32932 -0.11308,-0.49768 -0.1443,-0.61147 -0.30778,-1.23284 -0.48623,-1.86512 -0.57249,-2.02777 -1.29234,-4.13265 -2.18297,-6.28854 -1.09509,-2.63286 -2.43662,-5.35818 -4.13855,-8.0039 -1.70193,-2.64573 -3.76382,-5.21316 -6.33659,-7.4352 -2.2471,-1.97258 -4.89615,-3.64417 -7.86487,-5.04182 -2.96872,-1.39765 -6.25787,-2.5208 -9.71578,-3.44618 -2.29807,-0.60392 -4.67719,-1.10368 -7.12654,-1.47807 -0.70044,-0.10695 -1.40174,-0.20318 -2.10381,-0.28276 -1e-5,0 -2e-5,0 -2e-5,0 -0.18827,-0.0213 -0.37389,-0.0412 -0.55688,-0.0588 -0.22209,-0.63743 -0.44281,-1.27538 -0.66218,-1.91373 -0.0437,-0.11119 -0.0874,-0.2224 -0.13113,-0.33361 -0.0158,-0.0402 -0.0316,-0.0803 -0.0474,-0.12045 -5e-5,-1e-4 -7e-5,-1.9e-4 -8e-5,-2.8e-4 -0.006,-0.0348 -0.0116,-0.0697 -0.0174,-0.10453 -0.0164,-0.0988 -0.0328,-0.19763 -0.0491,-0.29649 -0.064,-0.38589 -0.12804,-0.77219 -0.19221,-1.15888 0.1356,-0.10325 0.27143,-0.2065 0.40744,-0.30989 10e-6,-1e-5 2e-5,-1e-5 3e-5,-2e-5 0.51147,-0.38877 1.02558,-0.7795 1.54233,-1.17216 1.80096,-1.36851 3.6339,-2.7606 5.49848,-4.176 5.30817,-4.02944 10.87275,-8.24784 16.68576,-12.64925 5.35748,-4.05648 10.92599,-8.26841 16.69931,-12.63111 0,0 0,0 0,0 1.81614,-1.37239 3.65254,-2.7597 5.50902,-4.16178 0,0 0,0 0,0 0.51375,-0.38801 1.02904,-0.77715 1.54586,-1.16741 0,0 0,0 0,0 0.13605,-0.10274 0.27221,-0.20555 0.40847,-0.30844 4e-5,-1e-5 5e-5,-1e-5 6e-5,-1e-5 0.43446,-0.0965 0.86916,-0.19299 1.30412,-0.28955 0,0 0,0 0,0 0.009,-0.004 0.0173,-0.007 0.0259,-0.0106 0.003,-0.001 0.006,-0.002 0.009,-0.004 2.05182,1.26657 4.12273,2.55944 6.21251,3.8787 -2.26926,-2.60734 -4.566,-5.2429 -6.88931,-7.90554 0.50232,1.78944 1.01661,3.59211 1.54292,5.40794 -16.70049,11.18993 -34.73144,23.27417 -53.99862,36.19105 -8.73055,-0.22587 -17.68398,-0.48108 -26.85492,-0.76565 0.4398,-5.99947 0.8807,-12.0973 1.3226,-18.29216 7.11118,-2.45964 14.34518,-4.96967 21.69878,-7.52895 8.12838,-8.68959 16.46309,-17.58781 24.99534,-26.6854 2.34215,0.84802 4.69416,1.70684 7.05592,2.5764 -2.61258,-2.75073 -5.23719,-5.51001 -7.87354,-8.27763 0.0566,2.2159 0.12033,4.44074 0.19101,6.67445 -8.34573,7.1488 -16.84643,14.42997 -25.49611,21.83827 -7.42512,3.10982 -14.93656,6.24922 -22.53163,9.41726 -2.82291,8.37254 -5.68599,16.8435 -8.58789,25.4096 -14.42037,0.16352 -29.11516,0.33878 -44.06931,0.52476 -14.1028,-11.5045 -28.47555,-23.25439 -43.09967,-35.23178 -11.34194,9.72294 -22.83846,19.58666 -34.48071,29.58207 -17.36304,-3.38497 -34.99474,-6.82929 -52.87324,-10.32789 0.013,-4.76132 0.0304,-9.54057 0.0519,-14.33731 -2.50234,6.38155 -5.01485,12.79184 -7.53749,19.23042 2.26972,-2.15201 4.54259,-4.31138 6.8186,-6.47788 18.40047,5.48425 37.03423,11.04653 55.88156,16.67932 9.86205,-9.68573 19.80691,-19.44364 29.82783,-29.26951 4.77281,7.18855 9.56687,14.4077 14.38067,21.65557 -6.49429,6.37558 -13.01626,12.78076 -19.56458,19.21325 -4.65052,4.62818 -8.95667,9.47083 -12.29108,14.80526 -10e-6,2e-5 -2e-5,4e-5 -3e-5,5e-5 -1.5634,2.48937 -2.91299,5.01268 -3.82984,7.59165 0,2e-5 -1e-5,4e-5 -2e-5,6e-5 -0.81179,2.32649 -1.34621,4.63604 -1.30159,6.79809 0,2e-5 0,4e-5 0,5e-5 -0.11998,4.56993 2.23819,9.39898 5.13995,14.11061 3.28936,5.12193 7.54408,9.78485 12.17793,14.24465 2.04174,1.95527 4.15619,3.8479 6.33236,5.68273 1.99832,1.68489 4.04462,3.31766 6.12977,4.90271 1.35754,1.03116 2.7232,2.03531 4.10146,3.00435 0.38001,0.26717 0.7563,0.52861 1.12986,0.7828 10e-6,3e-5 10e-6,3e-5 10e-6,4e-5 0.33348,1.2114 0.66429,2.42061 0.99258,3.62742 0,2e-5 0,2e-5 0,2e-5 0.023,0.0227 0.0459,0.0453 0.0689,0.0679 0.006,0.006 0.0118,0.0116 0.0177,0.0174 -5.86402,8.54553 -11.7155,17.05661 -17.54454,25.53517 -9.29535,-11.14206 -18.53379,-22.21871 -27.70903,-33.22508 -19.19686,7.08681 -38.21069,14.10219 -57.02112,21.03751 -1.65129,-2.76176 -3.30084,-5.51795 -4.94869,-8.2684 1.9264,5.48447 3.84637,10.95205 5.75984,16.40272 0,-3e-5 1e-5,-5e-5 1e-5,-8e-5 0.52727,-3.76718 1.05571,-7.52532 1.58549,-11.27416 17.39391,-4.37928 34.60301,-8.71054 51.60813,-12.98927 11.2467,10.50844 22.37963,20.90862 33.39123,31.19234 16.44196,-11.05119 32.64867,-21.9268 48.6014,-32.61079 15.34645,-1.255 30.47924,-2.5022 45.38374,-3.74206 1.48627,4.11492 2.9626,8.21262 4.42878,12.2928 7.58245,6.80832 15.08708,13.55191 22.51075,20.22825 8.94035,8.86193 17.75623,17.59583 26.44164,26.19515 -1.0164,3.0394 -2.02243,6.06766 -3.01792,9.08465 3.82122,-4.08158 7.62506,-8.13935 11.4112,-12.1728 -3.26255,-0.11111 -6.51009,-0.22994 -9.74244,-0.35662 -7.58497,-8.42324 -15.04901,-16.71796 -22.38703,-24.87861 -8.13105,-5.77364 -16.13782,-11.45724 -24.01584,-17.0475 0,-3e-5 -1e-5,-5e-5 -1e-5,-8e-5 -0.73671,-4.40068 -1.47343,-8.76351 -2.21015,-13.08803 9.08698,-0.53309 18.02096,-1.03755 26.79768,-1.51279 19.46374,13.78084 38.02963,26.92951 55.62504,39.3944 -0.14763,4.24293 -0.27712,8.43948 -0.38853,12.589 3.2652,-5.46359 6.48664,-10.84952 9.66246,-16.15472 -3.31361,1.38071 -6.59643,2.73187 -9.84797,4.05341 -18.43228,-13.91714 -35.58769,-26.74388 -51.35976,-38.41446 0.0217,-0.0568 0.0433,-0.11372 0.065,-0.17059 0.0604,-0.15872 0.12094,-0.31744 0.18147,-0.47614 0.23368,-0.61263 0.46799,-1.22499 0.70294,-1.83698 10e-6,-3e-5 2e-5,-6e-5 4e-5,-1e-4 1e-5,0 2e-5,0 3e-5,0 0.22741,-0.01 0.45728,-0.0218 0.6896,-0.0348 0,0 0,0 0,0 0.85142,-0.0478 1.70284,-0.1102 2.55402,-0.18292 2.82559,-0.24197 5.5977,-0.59276 8.30426,-1.06397 3.38131,-0.59291 6.62889,-1.34547 9.65692,-2.42471 2.87239,-1.05984 5.51733,-2.24684 7.38567,-4.04086 4.35972,-4.00806 7.40149,-9.23562 10.21407,-14.35111 2.09424,-3.29611 4.10885,-6.50227 6.04456,-9.61753 8.01512,5.85931 15.40779,11.20931 22.15157,16.04196 -8.82366,-9.05001 -16.22523,-16.78973 -22.17069,-23.12474 12.8037,-12.19338 19.82642,-18.76315 20.72957,-19.36551 0.026,0.0267 0.026,0.0267 0.026,0.0267 0,0 4e-5,4e-5 0.026,0.0267 -0.62375,0.88507 -7.30511,7.66513 -19.02233,19.35879 5.79052,6.37975 12.74171,14.18981 20.72127,23.3444 -6.63255,-4.21604 -13.8878,-8.77494 -21.73597,-13.64662 -0.92974,2.91672 -1.85713,5.90368 -2.78024,8.95928 -2.72805,5.3416 -5.93889,11.03153 -10.86029,15.8596 -2.62838,2.48711 -5.8302,4.10125 -8.99981,5.25322 -3.36637,1.26157 -6.88324,2.15474 -10.4443,2.83545 -2.85861,0.54975 -5.77726,0.97174 -8.74176,1.27612 -0.8935,0.0919 -1.79591,0.17341 -2.7074,0.24018 0,0 0,0 0,0 -0.24863,0.0182 -0.5004,0.0354 -0.75535,0.0509 -10e-6,0 -2e-5,0 -4e-5,0 10e-6,-3e-5 10e-6,-7e-5 2e-5,-1e-4 0.1084,-0.60532 0.21612,-1.21127 0.32315,-1.81795 0.0277,-0.15716 0.0554,-0.31437 0.083,-0.47164 0.01,-0.0564 0.0198,-0.1127 0.0297,-0.16907 15.67788,10.04355 32.684,20.80305 50.9094,32.19559 3.56092,0.0442 7.16275,0.10448 10.80499,0.18097 -3.99664,6.50828 -8.09106,13.172 -12.2813,19.98796 -1.48097,-3.79682 -2.99442,-7.63012 -4.54017,-11.49926 -16.7326,-11.43773 -34.26292,-23.42287 -52.52377,-35.90968 -6.91425,-0.89933 -13.90251,-1.83412 -20.96227,-2.80361 1.51765,1.97737 3.04828,3.95276 4.59175,5.92612 10e-6,1e-5 2e-5,2e-5 3e-5,3e-5 7.68464,5.1164 15.48476,10.30749 23.39622,15.57064 7.05986,7.93109 14.22817,15.99018 21.50051,24.17215 3.19226,2.01485 6.39889,4.04741 9.6197,6.09742 -5.59846,5.35115 -11.26125,10.76001 -16.98662,16.22502 -0.99549,-2.98454 -2.00152,-5.98014 -3.01792,-8.98669 -8.28888,-7.52626 -16.68742,-15.14606 -25.19073,-22.8556 -7.88294,-7.36968 -15.85862,-14.8315 -23.92304,-22.38144 -0.28415,-3.68749 -0.56512,-7.38847 -0.84304,-11.10274 -12.67344,2.21453 -25.49077,4.46833 -38.44566,6.75834 -17.13462,10.38142 -34.57995,20.93073 -52.30832,31.63445 -11.46775,-10.04525 -23.0693,-20.20476 -34.7951,-30.47128 -14.50062,3.81058 -29.14009,7.65665 -43.91178,11.53611 -2.47579,2.69165 -4.95926,5.3876 -7.45013,8.08785 -2e-5,2e-5 -3e-5,3e-5 -5e-5,5e-5 -2.37262,-7.40759 -4.75553,-14.84867 -7.14826,-22.32156 2.64838,0.68653 5.30155,1.37253 7.95941,2.05808 19.08625,-6.69045 38.38072,-13.44883 57.86094,-20.26839 8.35248,11.65141 16.75825,23.38312 25.21417,35.18782 3.60343,-6.0989 7.21848,-12.21791 10.84578,-18.35731 -0.0156,-0.008 -0.0236,-0.0119 -0.0317,-0.0154 -0.0314,-0.0136 -0.0627,-0.0273 -0.0941,-0.041 0,0 0,0 0,0 0.11743,1.06551 0.23802,2.13244 0.36162,3.20102 0,10e-6 10e-6,10e-6 10e-6,2e-5 -0.42609,-0.28992 -0.84439,-0.58033 -1.2559,-0.86968 -1.49309,-1.04981 -2.95807,-2.12629 -4.39932,-3.22127 -2.21277,-1.67994 -4.39181,-3.4187 -6.52801,-5.22071 -2.32633,-1.96238 -4.5967,-3.99548 -6.80007,-6.10405 -4.99766,-4.76048 -9.74639,-10.02442 -13.65734,-16.04213 -3.64523,-5.41727 -6.53319,-12.03951 -6.73258,-19.4703 0,-4e-5 0,-7e-5 0,-1e-4 0.006,-3.65804 0.74026,-7.11817 1.89939,-10.25272 10e-6,-3e-5 2e-5,-6e-5 3e-5,-8e-5 1.26116,-3.45581 2.93202,-6.62894 4.79383,-9.54334 10e-6,-2e-5 3e-5,-4e-5 4e-5,-6e-5 4.04357,-6.30541 8.92373,-11.81483 14.01578,-16.81221 6.30089,-4.37638 12.57791,-8.73782 18.83002,-13.08461 -2.52682,-4.84257 -5.04768,-9.67152 -7.5631,-14.4871 -9.05318,10.54873 -18.04359,21.01713 -26.96779,31.39853 -19.47146,-5.25323 -38.71601,-10.45184 -57.70968,-15.59092 -3.32876,-0.0108 -6.64945,-0.0188 -9.96192,-0.0238 3.53434,-8.27123 7.04601,-16.4911 10.53385,-24.65712 1.74809,3.83626 3.48659,7.66259 5.21513,11.47889 15.2482,2.60369 30.32732,5.18505 45.22826,7.74346 12.34327,-9.62911 24.51844,-19.13314 36.51383,-28.50438 15.63125,11.70072 30.96155,23.1967 45.96618,34.47194 12.5802,0.62304 24.99999,1.22869 37.25172,1.81558 2.31965,-8.40395 4.62045,-16.71565 6.90181,-24.93198 8.07754,-3.79756 16.05779,-7.54336 23.93753,-11.2357 7.96728,-6.58492 15.82042,-13.07541 23.55465,-19.46763 1.79829,-2.08532 3.58307,-4.16322 5.35425,-6.23365 3.87113,4.60753 7.7009,9.1632 11.4886,13.66613 -2.391,0.86956 -4.77202,1.72838 -7.14298,2.5764 -8.19249,8.94752 -16.21368,17.69646 -24.05541,26.23779 -7.07096,1.81181 -14.03797,3.60511 -20.89795,5.37916 -0.86387,3.81596 -1.71387,7.61506 -2.54984,11.39646 7.30577,-0.81861 14.50229,-1.59727 21.58478,-2.33567 18.20189,-11.56693 35.38152,-22.49071 51.44038,-32.70707 0.77436,-1.61539 1.53506,-3.22136 2.28216,-4.81784 3.0212,3.68716 5.98126,7.2972 8.87963,10.82952 -2.25544,0.0157 -4.48736,0.0177 -6.6956,0.006 -0.003,0.003 -0.007,0.007 -0.01,0.0104 -0.009,0.01 -0.0189,0.0198 -0.0283,0.0297 0,0 0,0 0,0 0.36428,-0.0441 0.72832,-0.0882 1.09213,-0.13226 10e-6,0 2e-5,0 2e-5,-1e-5 -0.13795,0.10058 -0.27582,0.20108 -0.41359,0.3015 0,0 0,0 0,0 -0.52334,0.38147 -1.04516,0.76181 -1.56545,1.141 0,0 0,0 0,0 -1.88011,1.37023 -3.74026,2.72554 -5.58026,4.06577 0,0 0,0 0,0 -5.84916,4.26048 -11.49465,8.36865 -16.93019,12.31993 -5.89771,4.28724 -11.54826,8.38977 -16.94362,12.3017 -1.8952,1.37412 -3.75892,2.72473 -5.5908,4.05157 -0.52562,0.3807 -1.04861,0.75945 -1.56898,1.13624 -1e-5,10e-6 -2e-5,10e-6 -3e-5,2e-5 -0.13838,0.1002 -0.27657,0.20025 -0.41458,0.30017 -0.13489,-0.33439 -0.26961,-0.66826 -0.40422,-1.00175 -0.0345,-0.0854 -0.069,-0.17084 -0.10342,-0.25622 -0.0121,-0.0302 -0.0243,-0.0603 -0.0364,-0.0904 -3e-5,-7e-5 -6e-5,-1.5e-4 -9e-5,-2.2e-4 -0.006,-0.0392 -0.0122,-0.0784 -0.0183,-0.11765 -0.017,-0.10861 -0.0339,-0.21716 -0.0509,-0.32564 -0.11611,-0.62793 -0.23368,-1.25493 -0.35268,-1.88114 0.21221,0.0255 0.42069,0.0528 0.62558,0.0809 10e-6,0 2e-5,0 3e-5,0 0.76431,0.1051 1.51625,0.22628 2.25647,0.35766 2.58887,0.45915 5.09478,1.05013 7.50793,1.74983 3.62261,1.03384 7.10805,2.3373 10.28586,3.95905 3.17781,1.62175 6.04874,3.56124 8.51484,5.82178 2.77558,2.58154 4.94087,5.44756 6.68025,8.34513 1.73939,2.89757 3.05241,5.82799 4.08002,8.63111 0.84637,2.29233 1.50991,4.5247 2.01749,6.66901 0.1583,0.66847 0.30208,1.33202 0.42695,1.99021 0.0344,0.18119 0.0676,0.36377 0.0989,0.54776 -0.21924,-0.0458 -0.43765,-0.0908 -0.65536,-0.1348 -0.077,-0.0156 -0.15391,-0.0308 -0.23085,-0.0462 3e-5,4e-5 2e-5,4e-5 2e-5,3e-5 13.08259,-9.66903 20.57801,-14.44831 20.81078,-14.11504 z"
         style="fill:#666666;fill-rule:evenodd;stroke:#000000"
         inkscape:connector-curvature="0" />
      <path
         inkscape:original-d="m 376.3171,480.41011 9.61012,119.36784 -22.76082,56.14335 -34.39412,-97.61862 21.74922,-76.37519 25.7956,-1.51738 z"
         inkscape:path-effect="#path-effect2996"
         id="path2994"
         d="m 376.3171,480.41011 c 1.036,-0.0834 2.98828,12.17688 5.45784,33.35904 2.46956,21.18216 5.45614,51.28783 8.59213,86.69077 -8.29196,17.81902 -17.52537,37.085 -27.24164,57.22673 -1.77895,-4.51147 -3.57649,-9.06923 -5.38867,-13.66704 -12.1542,-30.83734 -23.56722,-59.98772 -33.19703,-85.58711 5.16327,-16.57652 9.9041,-31.66997 14.06772,-44.82714 4.16362,-13.15717 7.75001,-24.37804 10.64115,-33.26469 8.28066,-0.13333 14.79055,-0.22305 19.35169,-0.23786 4.56113,-0.0148 7.174,0.0454 7.71206,0.22659 0.005,0.0805 0.005,0.0807 0.005,0.0807 0,0 1e-5,2.4e-4 0.005,0.0807 -0.51002,0.24284 -3.05064,0.6062 -7.25313,1.10689 -4.2025,0.50069 -10.06637,1.13884 -17.27432,1.9166 -2.20944,9.02471 -4.95488,20.03886 -8.11933,32.61516 -3.16445,12.57629 -6.74794,26.71476 -10.67024,42.04338 8.1391,24.83298 16.89474,52.926 26.11489,82.75413 1.37472,4.44734 2.73727,8.85866 4.08765,13.22897 6.30982,-19.3893 12.38892,-37.89415 18.28,-55.05997 -2.50577,-34.67371 -4.32425,-64.25196 -5.24931,-85.23455 -0.92506,-20.9826 -0.95696,-33.36791 0.079,-33.45132 z"
         style="fill:none;stroke:none"
         inkscape:connector-curvature="0" />
      <path
         id="path3038"
         d="m 239.87176,381.33453 c 0.41728,-0.0209 4.7258,0.74635 9.57449,1.70509 l 8.81578,1.74315 15.96822,-13.70929 c 8.78251,-7.54011 16.46554,-14.15516 17.07338,-14.70011 l 1.10518,-0.99081 21.40274,17.54284 21.40275,17.54285 11.3357,-0.28849 c 6.23463,-0.15867 16.36822,-0.2885 22.51906,-0.2885 l 11.18336,0 4.25828,-12.84137 4.25826,-12.84137 11.21658,-4.65483 c 10.84358,-4.50004 11.36286,-4.78118 15.61531,-8.45413 2.41931,-2.08961 4.49887,-3.69915 4.62127,-3.57676 0.12239,0.12239 -1.88369,2.43054 -4.45795,5.12923 l -4.68048,4.90669 -10.36881,3.56602 c -5.70285,1.96131 -10.57892,3.76741 -10.83571,4.01355 -0.37084,0.35547 -1.64996,13.63206 -1.78058,18.48149 -0.0282,1.04601 0.18858,1.06823 13.91551,1.42635 12.03715,0.31405 14.10437,0.2588 15.11591,-0.40399 1.12387,-0.73639 1.184,-0.7068 1.47002,0.72328 0.17689,0.88447 0.61846,1.49107 1.08542,1.49107 0.43297,0 0.92325,0.35449 1.08951,0.78776 0.16626,0.43327 0.60899,0.67007 0.98385,0.52622 1.08129,-0.41493 16.69323,5.09716 20.11355,7.10147 7.95472,4.66146 12.0067,9.99536 17.04543,22.4381 1.18286,2.92097 2.3334,5.51909 2.55677,5.77361 0.23408,0.26672 1.6122,-0.33805 3.2533,-1.42768 1.56596,-1.03974 2.94887,-1.78876 3.07314,-1.66449 0.12427,0.12428 -1.29317,1.61795 -3.14988,3.31929 l -3.37584,3.09334 7.45619,7.84497 c 4.1009,4.31473 7.31695,7.84496 7.14678,7.84496 -0.17017,0 -3.30985,-2.16797 -6.97705,-4.8177 l -6.66766,-4.8177 -2.51109,3.93256 c -1.3811,2.1629 -3.85708,6.19766 -5.50219,8.96611 -3.53427,5.94764 -7.42068,10.87837 -9.95474,12.6297 -2.4372,1.68438 -7.57697,3.57155 -13.85913,5.08866 -2.83823,0.68541 -7.32269,1.90723 -9.96547,2.71515 -4.59973,1.40616 -4.8591,1.4322 -6.06955,0.60921 -1.1819,-0.80357 -2.16474,-0.81003 -15.04743,-0.0989 -15.69212,0.86619 -14.2943,0.27149 -13.27471,5.64773 0.27952,1.47393 0.41683,2.77128 0.30511,2.88299 -0.11171,0.11171 -0.81432,-1.63219 -1.56135,-3.87534 -0.74704,-2.24315 -1.62407,-4.08217 -1.94896,-4.08672 -0.32489,-0.005 -10.71927,0.80667 -23.09863,1.8027 l -22.50792,1.81095 -24.20671,16.21052 c -23.48077,15.72436 -24.23383,16.18223 -25.11097,15.26792 -0.87362,-0.91066 -0.60624,-1.37459 7.89288,-13.69501 l 8.79715,-12.75243 -0.88324,-2.24204 c -0.73031,-1.85386 -1.75895,-2.90059 -5.94119,-6.04569 -15.76948,-11.85887 -27.11428,-25.51108 -29.08406,-34.99946 -0.81055,-3.90441 -0.0431,-7.85159 2.5562,-13.1469 3.2218,-6.56351 7.72094,-11.93016 21.38178,-25.50457 l 12.90393,-12.82229 -7.55144,-11.31078 c -4.15329,-6.22093 -7.72234,-11.31078 -7.93122,-11.31078 -0.20888,0 -4.01885,3.65728 -8.46659,8.12729 -4.44774,4.47 -11.15952,11.04197 -14.91505,14.60438 l -6.82825,6.4771 -9.61012,-2.88432 c -5.28557,-1.58638 -9.95154,-3.0192 -10.36882,-3.18404 -0.67439,-0.26642 -0.67439,-0.30395 0,-0.33779 z"
         style="fill:#1a1a1a;stroke:none"
         inkscape:connector-curvature="0" />
    </g>
  </g>
</svg>
