<?xml version="1.0" encoding="UTF-8" standalone="no"?>
<!-- Created with Inkscape (http://www.inkscape.org/) -->

<svg
   xmlns:dc="http://purl.org/dc/elements/1.1/"
   xmlns:cc="http://creativecommons.org/ns#"
   xmlns:rdf="http://www.w3.org/1999/02/22-rdf-syntax-ns#"
   xmlns:svg="http://www.w3.org/2000/svg"
   xmlns="http://www.w3.org/2000/svg"
   xmlns:sodipodi="http://sodipodi.sourceforge.net/DTD/sodipodi-0.dtd"
   xmlns:inkscape="http://www.inkscape.org/namespaces/inkscape"
   width="210mm"
   height="297mm"
   id="svg2855"
   version="1.1"
   inkscape:version="0.47 r22583"
   sodipodi:docname="Human.svg">
  <defs
     id="defs2857">
    <inkscape:perspective
       sodipodi:type="inkscape:persp3d"
       inkscape:vp_x="0 : 526.18109 : 1"
       inkscape:vp_y="0 : 1000 : 0"
       inkscape:vp_z="744.09448 : 526.18109 : 1"
       inkscape:persp3d-origin="372.04724 : 350.78739 : 1"
       id="perspective2863" />
  </defs>
  <sodipodi:namedview
     id="base"
     pagecolor="#ffffff"
     bordercolor="#666666"
     borderopacity="1.0"
     inkscape:pageopacity="0.0"
     inkscape:pageshadow="2"
     inkscape:zoom="9.668286"
     inkscape:cx="315.54341"
     inkscape:cy="516.26411"
     inkscape:document-units="px"
     inkscape:current-layer="layer1"
     showgrid="false"
     inkscape:window-width="1505"
     inkscape:window-height="952"
     inkscape:window-x="332"
     inkscape:window-y="43"
     inkscape:window-maximized="0" />
  <metadata
     id="metadata2860">
    <rdf:RDF>
      <cc:Work
         rdf:about="">
        <dc:format>image/svg+xml</dc:format>
        <dc:type
           rdf:resource="http://purl.org/dc/dcmitype/StillImage" />
        <dc:title></dc:title>
      </cc:Work>
    </rdf:RDF>
  </metadata>
  <g
     inkscape:label="Ebene 1"
     inkscape:groupmode="layer"
     id="layer1">
    <path
       sodipodi:type="arc"
       style="fill:#013303;fill-opacity:1;stroke:none"
       id="path2865"
       sodipodi:cx="338.90515"
       sodipodi:cy="537.59387"
       sodipodi:rx="22.223289"
       sodipodi:ry="15.59904"
       d="m 361.12844,537.59387 a 22.223289,15.59904 0 1 1 -44.44658,0 22.223289,15.59904 0 1 1 44.44658,0 z"
       transform="matrix(0,1,-1,0,875.43062,196.76553)" />
    <path
       sodipodi:type="arc"
       style="fill:#241c1c;fill-opacity:1;stroke:none"
       id="path2867"
       sodipodi:cx="233.13086"
       sodipodi:cy="545.92761"
       sodipodi:rx="7.9063625"
       sodipodi:ry="7.692677"
       d="m 241.03722,545.92761 a 7.9063625,7.692677 0 1 1 -15.81272,0 7.9063625,7.692677 0 1 1 15.81272,0 z"
       transform="matrix(0,1.7567567,-2.0277778,0,1447.8482,126.33018)" />
    <path
       sodipodi:type="arc"
       style="fill:#013303;fill-opacity:1;stroke:none"
       id="path2869"
       sodipodi:cx="326.29773"
       sodipodi:cy="597.85315"
       sodipodi:rx="7.9063625"
       sodipodi:ry="4.4873948"
       d="m 334.20409,597.85315 a 7.9063625,4.4873948 0 1 1 -15.81272,0 7.9063625,4.4873948 0 1 1 15.81272,0 z"
       transform="matrix(0,1,-1,0,935.26255,186.936)" />
    <path
       transform="matrix(0,1,-1,0,935.68992,232.66469)"
       d="m 334.20409,597.85315 a 7.9063625,4.4873948 0 1 1 -15.81272,0 7.9063625,4.4873948 0 1 1 15.81272,0 z"
       sodipodi:ry="4.4873948"
       sodipodi:rx="7.9063625"
       sodipodi:cy="597.85315"
       sodipodi:cx="326.29773"
       id="path2873"
       style="fill:#013303;fill-opacity:1;stroke:none"
       sodipodi:type="arc" />
  </g>
</svg>
